<svg width="16" height="16" viewBox="0 0 16 16" fill="none" xmlns="http://www.w3.org/2000/svg">
<rect width="16" height="16" rx="8" fill="#D9D9D9"/>
<g clip-path="url(#clip0_464_10)">
<path d="M4.66638 4.33212V4.24998H6.12852V8.91571C6.12852 9.34833 6.0409 9.63857 5.86567 9.78643C5.69043 9.92881 5.42483 10 5.06888 10C4.7184 10 4.40625 9.94798 4.13244 9.84393L4.15709 9.77821C4.41995 9.88226 4.69102 9.93429 4.9703 9.93429C5.1565 9.93429 5.27971 9.85488 5.33995 9.69607C5.40566 9.53726 5.43852 9.27988 5.43852 8.92392V4.33212H4.66638Z" fill="#372F2F"/>
<path d="M6.87986 13H6.77307L7.48772 7.24998H7.75879L9.4838 12.5646L11.2006 7.24998H11.4717L12.1863 13H11.5045L10.9377 8.39998L9.45094 13H8.93344L7.43022 8.45748L6.87986 13Z" fill="#372F2F"/>
</g>
<defs>
<clipPath id="clip0_464_10">
<rect width="9" height="9" fill="white" transform="translate(4 4)"/>
</clipPath>
</defs>
</svg>
