<svg width="55" height="31" viewBox="0 0 55 31" fill="none" xmlns="http://www.w3.org/2000/svg">
<path d="M1.79964 4.51716V4.38131H4.21774V12.0975C4.21774 12.813 4.07284 13.293 3.78303 13.5375C3.49322 13.773 3.05398 13.8907 2.4653 13.8907C1.88568 13.8907 1.36946 13.8046 0.916631 13.6326L0.957386 13.5239C1.3921 13.696 1.8404 13.782 2.30228 13.782C2.61021 13.782 2.81398 13.6507 2.9136 13.388C3.02228 13.1254 3.07662 12.6998 3.07662 12.1111V4.51716H1.79964ZM8.93125 13.945C7.98031 13.945 7.20598 13.6733 6.60825 13.1299C6.01051 12.5865 5.71165 11.7488 5.71165 10.6167C5.71165 9.48468 6.01957 8.60619 6.63542 7.98129C7.26032 7.35639 8.04824 7.04394 8.99918 7.04394C9.95917 7.04394 10.738 7.31563 11.3358 7.85903C11.9335 8.40242 12.2324 9.24015 12.2324 10.3722C12.2324 11.5043 11.9199 12.3828 11.295 13.0077C10.6792 13.6326 9.89125 13.945 8.93125 13.945ZM9.02634 7.15262C8.33805 7.15262 7.76748 7.46054 7.31466 8.07638C6.86183 8.68317 6.63542 9.53449 6.63542 10.6303C6.63542 11.7171 6.84372 12.5231 7.26032 13.0484C7.67692 13.5737 8.22937 13.8363 8.91767 13.8363C9.60596 13.8363 10.1765 13.533 10.6294 12.9262C11.0822 12.3103 11.3086 11.459 11.3086 10.3722C11.3086 9.27638 11.1003 8.46581 10.6837 7.94053C10.2671 7.41525 9.71464 7.15262 9.02634 7.15262ZM18.9238 13.8907C18.308 13.8907 17.8869 13.773 17.6605 13.5375C17.4522 13.3382 17.348 13.1662 17.348 13.0213V12.736C16.9042 13.542 16.1933 13.945 15.2152 13.945C14.0741 13.945 13.4265 13.4288 13.2726 12.3964C13.2544 12.2877 13.2454 12.179 13.2454 12.0703C13.2454 11.9526 13.2635 11.8258 13.2997 11.6899C13.336 11.5541 13.4401 11.4047 13.6122 11.2416C13.9563 10.9156 14.7125 10.7164 15.8808 10.6439C16.1707 10.6167 16.4378 10.6032 16.6823 10.6032C16.9269 10.6032 17.1488 10.6122 17.348 10.6303V8.37525C17.3299 8.36619 17.3299 8.32544 17.348 8.25299C17.3661 8.17148 17.348 8.07185 17.2937 7.95412C17.2484 7.82733 17.185 7.70506 17.1035 7.58733C17.022 7.46959 16.8771 7.36997 16.6688 7.28846C16.4605 7.1979 16.1888 7.15262 15.8537 7.15262C15.5186 7.15262 15.1246 7.21601 14.6718 7.3428C14.228 7.46054 13.902 7.57827 13.6937 7.69601L13.6393 7.60091C14.4454 7.2296 15.265 7.04394 16.0982 7.04394C17.031 7.04394 17.6469 7.21148 17.9457 7.54658C18.1812 7.80921 18.2989 8.08544 18.2989 8.37525V12.9262C18.2989 13.1888 18.3488 13.3926 18.4484 13.5375C18.5571 13.6733 18.6657 13.7458 18.7744 13.7548L18.9238 13.782H19.345V13.8907H18.9238ZM15.4325 13.8363C15.9125 13.8363 16.3427 13.6733 16.7231 13.3473C17.1125 13.0122 17.3208 12.6907 17.348 12.3828V10.739C17.1035 10.7209 16.8544 10.7118 16.6008 10.7118C16.3563 10.7118 16.1118 10.7254 15.8673 10.7526C15.179 10.8341 14.7307 10.9881 14.5224 11.2145C14.3141 11.4409 14.2099 11.7533 14.2099 12.1518C14.2099 12.2243 14.2144 12.3058 14.2235 12.3964C14.305 13.3563 14.708 13.8363 15.4325 13.8363ZM13.748 5.98432L13.6393 5.94357C13.6846 5.67187 13.8024 5.42734 13.9926 5.20999C14.0559 5.13753 14.1601 5.08772 14.305 5.06055L14.631 5.00621C14.785 4.96999 15.0658 5.00169 15.4733 5.10131C15.8808 5.19187 16.2476 5.27338 16.5737 5.34583C16.9269 5.42734 17.2484 5.4681 17.5382 5.4681C17.828 5.4681 18.0182 5.43187 18.1088 5.35942C18.1993 5.27791 18.2718 5.13301 18.3261 4.9247L18.4484 4.95187C18.3488 5.44093 18.1631 5.75791 17.8914 5.90281C17.7827 5.96621 17.6831 5.99791 17.5925 5.99791C17.502 5.99791 17.4114 5.99338 17.3208 5.98432C17.1125 5.98432 16.868 5.93904 16.5873 5.84847C15.7993 5.62206 15.1473 5.50885 14.631 5.50885C14.1239 5.50885 13.8295 5.66734 13.748 5.98432ZM23.4978 13.945C22.5468 13.945 21.7725 13.6733 21.1748 13.1299C20.577 12.5865 20.2782 11.7488 20.2782 10.6167C20.2782 9.48468 20.5861 8.60619 21.202 7.98129C21.8269 7.35639 22.6148 7.04394 23.5657 7.04394C24.5257 7.04394 25.3046 7.31563 25.9023 7.85903C26.5 8.40242 26.7989 9.24015 26.7989 10.3722C26.7989 11.5043 26.4864 12.3828 25.8615 13.0077C25.2457 13.6326 24.4578 13.945 23.4978 13.945ZM23.5929 7.15262C22.9046 7.15262 22.334 7.46054 21.8812 8.07638C21.4284 8.68317 21.202 9.53449 21.202 10.6303C21.202 11.7171 21.4103 12.5231 21.8269 13.0484C22.2435 13.5737 22.7959 13.8363 23.4842 13.8363C24.1725 13.8363 24.7431 13.533 25.1959 12.9262C25.6487 12.3103 25.8751 11.459 25.8751 10.3722C25.8751 9.27638 25.6668 8.46581 25.2502 7.94053C24.8336 7.41525 24.2812 7.15262 23.5929 7.15262Z" fill="#372F2F"/>
<path d="M13.6887 27.137H13.5121L14.6939 17.6276H15.1422L17.995 26.417L20.8343 17.6276H21.2826L22.4644 27.137H21.3369L20.3996 19.5295L17.9407 27.137H17.0849L14.5988 19.6246L13.6887 27.137ZM29.5686 27.137C28.9527 27.137 28.5316 27.0193 28.3052 26.7838C28.0969 26.5846 27.9927 26.4125 27.9927 26.2676V25.9823C27.549 26.7883 26.838 27.1914 25.8599 27.1914C24.7188 27.1914 24.0712 26.6751 23.9173 25.6427C23.8992 25.534 23.8901 25.4253 23.8901 25.3167C23.8901 25.1989 23.9082 25.0721 23.9445 24.9363C23.9807 24.8004 24.0848 24.651 24.2569 24.488C24.6011 24.1619 25.3573 23.9627 26.5256 23.8903C26.8154 23.8631 27.0825 23.8495 27.3271 23.8495C27.5716 23.8495 27.7935 23.8586 27.9927 23.8767V21.6216C27.9746 21.6125 27.9746 21.5718 27.9927 21.4993C28.0108 21.4178 27.9927 21.3182 27.9384 21.2005C27.8931 21.0737 27.8297 20.9514 27.7482 20.8337C27.6667 20.7159 27.5218 20.6163 27.3135 20.5348C27.1052 20.4442 26.8335 20.399 26.4984 20.399C26.1633 20.399 25.7693 20.4623 25.3165 20.5891C24.8727 20.7069 24.5467 20.8246 24.3384 20.9423L24.2841 20.8473C25.0901 20.4759 25.9097 20.2903 26.7429 20.2903C27.6757 20.2903 28.2916 20.4578 28.5905 20.7929C28.8259 21.0556 28.9437 21.3318 28.9437 21.6216V26.1725C28.9437 26.4351 28.9935 26.6389 29.0931 26.7838C29.2018 26.9197 29.3105 26.9921 29.4191 27.0012L29.5686 27.0283H29.9897V27.137H29.5686ZM26.0773 27.0827C26.5573 27.0827 26.9875 26.9197 27.3678 26.5936C27.7573 26.2585 27.9656 25.937 27.9927 25.6291V23.9853C27.7482 23.9672 27.4991 23.9582 27.2456 23.9582C27.001 23.9582 26.7565 23.9718 26.512 23.9989C25.8237 24.0804 25.3754 24.2344 25.1671 24.4608C24.9588 24.6872 24.8546 24.9997 24.8546 25.3982C24.8546 25.4706 24.8592 25.5521 24.8682 25.6427C24.9497 26.6027 25.3527 27.0827 26.0773 27.0827ZM36.3749 27.137C36.0036 27.137 35.7183 27.0555 35.519 26.8925C35.3288 26.7295 35.2292 26.5665 35.2202 26.4034L35.2066 26.1725V21.9069C35.2066 21.1914 35.0209 20.734 34.6496 20.5348C34.4594 20.4442 34.224 20.399 33.9432 20.399C33.3636 20.399 32.8428 20.6299 32.3809 21.0918C31.9191 21.5446 31.6881 21.9522 31.6881 22.3144V27.137H30.7372V20.3446H31.6881V21.8933C31.8421 21.5039 32.1274 21.1416 32.544 20.8065C32.9606 20.4623 33.4179 20.2903 33.916 20.2903C34.4141 20.2903 34.8172 20.3401 35.1251 20.4397C35.4421 20.5303 35.673 20.6616 35.8179 20.8337C36.0443 21.1144 36.1575 21.4767 36.1575 21.9205V26.1725C36.1575 26.4351 36.2073 26.6389 36.307 26.7838C36.4156 26.9197 36.5243 26.9921 36.633 27.0012L36.7824 27.0283H37.2036V27.137H36.3749ZM38.8387 25.5748C38.8387 26.2902 39.0289 26.7476 39.4093 26.9468C39.5904 27.0374 39.8214 27.0827 40.1021 27.0827C40.6727 27.0827 41.1798 26.8653 41.6236 26.4306C42.0764 25.9959 42.321 25.5929 42.3572 25.2216V20.3446H43.3081V26.1725C43.3081 26.4351 43.3579 26.6389 43.4576 26.7838C43.5662 26.9197 43.6749 26.9921 43.7836 27.0012L43.933 27.0283H44.3542V27.137H43.5255C43.1542 27.137 42.8689 27.0555 42.6696 26.8925C42.4795 26.7295 42.3798 26.5665 42.3708 26.4034L42.3572 26.1725V25.5884C42.1942 25.9778 41.9044 26.3446 41.4878 26.6887C41.0712 27.0238 40.6138 27.1914 40.1157 27.1914C39.6266 27.1914 39.2236 27.1461 38.9066 27.0555C38.5987 26.9559 38.3768 26.82 38.241 26.648C38.0055 26.3672 37.8878 26.005 37.8878 25.5612V20.3446H38.8387V25.5748ZM45.9622 23.8223C45.9622 24.9453 46.1569 25.7695 46.5463 26.2948C46.9448 26.82 47.4655 27.0827 48.1086 27.0827C49.0142 27.0827 49.8202 26.9468 50.5267 26.6751L50.5674 26.7702C49.8429 27.051 49.0233 27.1914 48.1086 27.1914C47.2029 27.1914 46.4648 26.9197 45.8942 26.3763C45.3237 25.8329 45.0384 24.9952 45.0384 23.8631C45.0384 22.731 45.3373 21.8525 45.935 21.2276C46.5327 20.6027 47.2935 20.2903 48.2172 20.2903C48.9599 20.2903 49.5848 20.5122 50.0919 20.9559C50.5991 21.3997 50.8527 22.0563 50.8527 22.9257C50.8527 22.971 50.8527 23.0163 50.8527 23.0616H46.0029C45.9757 23.3061 45.9622 23.5597 45.9622 23.8223ZM49.9289 22.9529C49.9199 22.0835 49.7523 21.4405 49.4263 21.0239C49.1002 20.6073 48.6791 20.399 48.1629 20.399C47.6467 20.399 47.1848 20.6254 46.7772 21.0782C46.3788 21.531 46.1252 22.1559 46.0165 22.9529H49.9289ZM53.5428 27.137C52.7458 27.137 52.2432 26.9287 52.0349 26.5121C51.9896 26.4216 51.967 26.34 51.967 26.2676V16.962H52.9179V26.1725C52.9179 26.4351 52.9677 26.6389 53.0673 26.7838C53.176 26.9197 53.2847 26.9921 53.3934 27.0012L53.5428 27.0283H53.9639V27.137H53.5428Z" fill="#372F2F"/>
</svg>
